<svg xmlns="http://www.w3.org/2000/svg" viewBox="0 0 408.64 60" id="logo"><path fill="#fff" d="M165.02,21.32l-.04-.28h-7.5l-.04,.28-.21,1.43-.04,.28,.27,.08,2.33,.71-2.09,6.96c-.34,1.14-.57,2.15-.72,2.91-.16-.75-.39-1.76-.72-2.86l-2.77-9.54-.07-.23h-4.61l-.07,.23-2.86,9.49c-.32,1.07-.51,2.01-.68,2.74-.16-.91-.37-1.81-.63-2.69l-1.97-7.12,2.24-.59,.29-.08-.05-.29-.25-1.43-.05-.27h-10.32l-.06,.25-.3,1.3-.05,.22,.19,.12,1.79,1.16,5,15.69,.07,.23h5.23l.07-.23,2.48-8.24c.29-.95,.53-1.91,.72-2.88,.18,.98,.42,1.94,.72,2.89l2.56,8.23,.07,.23h5.07l.07-.23,5.16-16.15,1.73-.57,.26-.09-.05-.25-.22-1.4Zm16.07-.7c-6.1,0-9.74,3.7-9.74,9.9s3.64,9.9,9.74,9.9,9.74-3.7,9.74-9.9-3.65-9.9-9.74-9.9Zm0,2.56c2.34,0,3.25,2.05,3.25,7.33s-.91,7.32-3.25,7.32-3.25-2.05-3.25-7.32,.91-7.31,3.25-7.31v-.02Zm-6.83,14.51l.09,.08-.09-.08Zm38.06-17.07c-2.66,0-4.21,1.83-5.06,3.41l.09-3.08v-.33h-1.32l-6.33,2.1-.23,.07v.79l.05,.08,1.72,2.7v11.18l-1.54,.67-.19,.09v1.71h10.77l.08-.2,.55-1.3,.15-.36-.38-.08-3.32-.74v-10.09c.65-.91,1.47-1.68,2.4-2.29,.15,1.63,1.56,2.84,3.19,2.75,1.87,0,3.22-1.43,3.22-3.39,.03-2.28-1.46-3.69-3.87-3.69Zm30.34,15.34V10.75h-1.33l-6.56,1.77-.24,.07v.83l.08,.09,1.9,2.18v5.43c-1-.37-2.06-.54-3.12-.51-4.64,0-10.07,2.76-10.07,10.54,0,5.81,3.08,9.27,8.2,9.27,2.1,.05,4.12-.83,5.51-2.41l.26,2.05,.04,.34,.34-.07,6.9-1.3,.26-.05v-1.08l-.11-.1-2.05-1.84Zm-6.15,.04c-.52,.24-1.08,.36-1.65,.37-3.56,0-5.22-2.05-5.22-6.4s1.59-6.73,4.26-6.73c.99-.05,1.96,.35,2.62,1.1v11.66Zm38.31-15.38c-6.48,0-10.66,4.48-10.66,11.42,0,5.18,3.25,8.39,8.47,8.39,6.5,0,10.7-4.48,10.7-11.42,0-5.18-3.25-8.39-8.52-8.39Zm-2.14,17.23c-1.03,0-2.24-.47-2.24-4.17,0-.69,.07-1.46,.11-1.92v-.11c.6-5.6,2.05-8.45,4.26-8.45,.49-.03,.97,.16,1.32,.51,.68,.7,.96,2.14,.88,4.4l-.09,1.3c-.42,3.84-1.45,8.43-4.24,8.43Zm32.78-27.31c-5.33,0-8.87,2.91-9.98,8.2l-.38,2.19-2.9,.63-.21,.04-.04,.21-.33,1.64-.08,.39h3.04l-3.17,19.39c-.25,1.54-.85,3.3-2.31,3.74,.21-.44,.32-.93,.31-1.41,0-1.73-1.03-2.8-2.72-2.8-1.62-.08-3,1.16-3.08,2.78,0,.12,0,.24,0,.36,0,2.05,1.71,3.35,4.36,3.35,5.58,0,9.04-3.01,10.03-8.72l2.73-16.7h4.75l.07-.23,.67-2.14,.13-.42h-5.16l.48-2.86c.6-3.59,1.8-5.36,3.67-5.36h.39c-.5,.58-.77,1.32-.75,2.09,0,1.63,1.28,2.8,3.08,2.8s3.01-1.37,3.01-3.27c-.02-2.42-2.11-3.9-5.6-3.9Zm50.95,10.78l-.04-.28h-7.5l-.04,.28-.21,1.43-.04,.28,.27,.08,2.34,.71-2.09,6.96c-.29,.96-.53,1.93-.72,2.91-.16-.75-.4-1.75-.72-2.86l-2.77-9.54-.07-.23h-4.61l-.07,.23-2.86,9.49c-.32,1.07-.54,2.01-.68,2.74-.13-.72-.33-1.65-.63-2.69l-1.97-7.12,2.25-.59,.29-.08-.05-.31-.25-1.43-.05-.27h-10.32l-.06,.25-.29,1.3-.05,.22,.19,.12,1.79,1.16,5.01,15.69,.07,.23h5.22l.07-.23,2.48-8.24c.29-.95,.53-1.91,.73-2.88,.18,.98,.41,1.94,.71,2.89l2.56,8.23,.07,.23h5.05l.07-.23,5.16-16.15,1.74-.57,.26-.09-.04-.27-.21-1.37Zm16.03-.7c-4.82,0-9.69,3.14-9.69,10.16,0,5.95,3.41,9.65,8.89,9.65,3.91,0,6.45-1.45,7.78-4.44l.08-.18-.13-.16-.8-.92-.19-.23-.25,.18c-1.59,1.2-2.61,1.57-4.34,1.57-4.04,0-4.89-3.48-5-5.78h10.68l.06-.26c.15-.81,.22-1.64,.22-2.46,0-4.4-2.8-7.13-7.3-7.13Zm-.38,2.56c.54,0,2.2,0,2.2,3.42,0,.41-.02,.82-.07,1.23h-5.3c.35-2.98,1.47-4.63,3.17-4.63v-.02Zm28.79-2.56c-2.29,0-4.18,.77-5.39,2.18V10.75h-1.33l-6.56,1.77-.24,.07v.83l.08,.09,1.89,2.18v23.44l.21,.08c2.43,.89,5.01,1.32,7.6,1.24,10.71,0,11.54-8.16,11.54-10.66,0-5.57-3.06-9.16-7.8-9.16Zm-3.32,17.14c-.72,0-1.43-.2-2.05-.57v-11.83c.66-.4,1.42-.6,2.19-.57,3.08,0,4.68,2.05,4.68,6.06-.02,4.32-1.81,6.91-4.82,6.91Z"></path><path fill="#fff" d="M103.03,27.47c-.19-3.85-3.47-7.33-7.31-7.35-4.02-.03-7.02,2.62-7.02,6.37,0,3.31,1.78,6.2,6.03,6.29,.51,.02,1.03-.01,1.54-.08-1.35,6.21-4.81,13.4-10.69,18.69-.46,.47-1.01,.86-1.6,1.15,1.02-1.01,1.21-2.8,1.03-4.64-.27-2.61-1.97-21.49-1.95-21.3-.25-3.45-3.25-6.06-6.7-5.81-3.01,.21-5.45,2.55-5.79,5.55-1.22,8.87-3.85,17.11-7.4,24.01-.2,.38-1.19,2.17-2.19,3.07,1.06-1.46,1.44-3.25,1.37-5.3-.17-4.78-.77-18.47-.96-21.45-.28-4.58-3.78-6.91-7.41-6.91-.84-.02-1.67,.02-2.5,.11,2.26-4.26,3.62-8.64,3.43-12.52C54.72,3.5,51.43,.02,47.59,0c-4.02-.03-7.02,2.62-7.02,6.37,0,3.31,1.78,6.2,6.03,6.29,.51,.02,1.02-.01,1.53-.08-1.34,6.17-4.96,13.51-10.57,18.59-.61,.55-1.28,1.11-1.73,1.26,1.03-1.05,1.18-2.89,1.07-4.04l-1.98-21.89c-.31-3.45-3.36-5.99-6.81-5.68-2.92,.26-5.26,2.51-5.65,5.41-1.27,9.19-4.56,19.18-7.8,24.68-.16,.27-1.19,1.94-1.81,2.39,.5-.6,1.45-2.73,1.37-5.01-.09-2.64-.79-18.37-.94-21.74C13.09,2.86,10.2,.18,6.58,.18S-.16,2.9,0,6.75c.3,5.22,1.51,26.09,1.51,26.09,.24,3.95,3.52,7.04,7.48,7.04h0c2.06,0,4.03-.84,5.44-2.34,4.43-4.75,9.89-20.2,9.89-20.2l.17,13.38c.39,4.07,3.8,7.18,7.89,7.18h0c1.52,.01,3.01-.42,4.28-1.25,2.42-1.66,4.66-3.56,6.68-5.69,2.08-2.1,3.73-2.9,4.87-3.17,.4,6.94,1.42,25.21,1.42,25.21,.27,4.14,3.84,7.27,7.98,7,1.88-.12,3.64-.95,4.94-2.31,4.43-4.74,9.86-20.2,9.86-20.2l.2,13.38c.39,4.07,3.8,7.18,7.89,7.18,1.52,.01,3.01-.42,4.28-1.25,8.91-5.97,18.71-19.29,18.23-29.3Z"></path></svg>