<svg width="42" height="42" viewBox="0 0 42 42" fill="none" xmlns="http://www.w3.org/2000/svg">
<circle cx="21" cy="21" r="21" fill="#FDFBF7"/>
<path d="M14 17.5H9C8.44772 17.5 8 17.9477 8 18.5V23.5C8 24.0523 8.44772 24.5 9 24.5H14C14.5523 24.5 15 24.0523 15 23.5V18.5C15 17.9477 14.5523 17.5 14 17.5Z" stroke="#050041" stroke-width="1.5" stroke-linecap="round" stroke-linejoin="round"/>
<path d="M32 10H26C25.4477 10 25 10.4477 25 11V17C25 17.5523 25.4477 18 26 18H32C32.5523 18 33 17.5523 33 17V11C33 10.4477 32.5523 10 32 10Z" fill="#BAC5FE" stroke="#050041" stroke-width="1.5" stroke-linecap="round" stroke-linejoin="round"/>
<path d="M32 24H26C25.4477 24 25 24.4477 25 25V31C25 31.5523 25.4477 32 26 32H32C32.5523 32 33 31.5523 33 31V25C33 24.4477 32.5523 24 32 24Z" fill="#BAC5FE" stroke="#050041" stroke-width="1.5" stroke-linecap="round" stroke-linejoin="round"/>
<path d="M15 21H20" stroke="#050041" stroke-width="1.5" stroke-linecap="round" stroke-linejoin="round"/>
<path d="M25 28H23C22.6056 28.0017 22.2147 27.9252 21.85 27.775C21.4853 27.6249 21.1539 27.4039 20.875 27.125C20.5961 26.8461 20.3752 26.5148 20.225 26.15C20.0748 25.7853 19.9984 25.3945 20 25V17C19.9984 16.6056 20.0748 16.2147 20.225 15.85C20.3752 15.4853 20.5961 15.1539 20.875 14.875C21.1539 14.5961 21.4853 14.3752 21.85 14.225C22.2147 14.0748 22.6056 13.9984 23 14H25" stroke="#050041" stroke-width="1.5" stroke-linecap="round" stroke-linejoin="round"/>
</svg>
