<svg width="42" height="42" viewBox="0 0 42 42" fill="none" xmlns="http://www.w3.org/2000/svg">
<circle cx="21" cy="21" r="21" fill="#FDFBF7"/>
<path d="M19.5 30C25.299 30 30 25.299 30 19.5C30 13.701 25.299 9 19.5 9C13.701 9 9 13.701 9 19.5C9 25.299 13.701 30 19.5 30Z" fill="#BAC5FE"/>
<path d="M19.5 30C25.299 30 30 25.299 30 19.5C30 13.701 25.299 9 19.5 9C13.701 9 9 13.701 9 19.5C9 25.299 13.701 30 19.5 30Z" stroke="#050041" stroke-width="1.5" stroke-linecap="round" stroke-linejoin="round"/>
<path d="M26.9248 26.925L32.9998 33" stroke="#050041" stroke-width="1.5" stroke-linecap="round" stroke-linejoin="round"/>
</svg>
