<svg width="42" height="42" viewBox="0 0 42 42" fill="none" xmlns="http://www.w3.org/2000/svg">
<circle cx="21" cy="21" r="21" fill="#FDFBF7"/>
<path d="M21 25H17V21L26 12L30 16L21 25Z" fill="#BAC5FE"/>
<path d="M21 25H17V21L29 9L33 13L21 25Z" stroke="#050041" stroke-width="1.5" stroke-linecap="round" stroke-linejoin="round"/>
<path d="M26 12L30 16" stroke="#050041" stroke-width="1.5" stroke-linecap="round" stroke-linejoin="round"/>
<path d="M32 20V31C32 31.2652 31.8946 31.5196 31.7071 31.7071C31.5196 31.8946 31.2652 32 31 32H11C10.7348 32 10.4804 31.8946 10.2929 31.7071C10.1054 31.5196 10 31.2652 10 31V11C10 10.7348 10.1054 10.4804 10.2929 10.2929C10.4804 10.1054 10.7348 10 11 10H22" stroke="#050041" stroke-width="1.5" stroke-linecap="round" stroke-linejoin="round"/>
</svg>
