<svg width="42" height="42" viewBox="0 0 42 42" fill="none" xmlns="http://www.w3.org/2000/svg">
<circle cx="21" cy="21" r="21" fill="#FDFBF7"/>
<path d="M9.58751 26.625L12.6125 9.48751C12.6337 9.35817 12.6803 9.23433 12.7498 9.12321C12.8193 9.01209 12.9102 8.91591 13.0173 8.84029C13.1243 8.76466 13.2453 8.7111 13.3733 8.68273C13.5012 8.65435 13.6335 8.65173 13.7625 8.67501L20.6625 9.88751C20.9232 9.93625 21.1544 10.0853 21.3063 10.3027C21.4582 10.5201 21.5188 10.7884 21.475 11.05L18.4375 28.2875C18.2295 29.4482 17.5754 30.4814 16.6152 31.1659C15.6551 31.8504 14.4651 32.1318 13.3 31.95C10.8125 31.55 9.15001 29.1125 9.58751 26.625Z" fill="#BAC5FE" stroke="#050041" stroke-width="1.5" stroke-linecap="round" stroke-linejoin="round"/>
<path d="M19.7875 20.6L28.9 17.2875C29.0239 17.2417 29.1556 17.221 29.2875 17.2264C29.4195 17.2319 29.5491 17.2634 29.6688 17.3192C29.7885 17.375 29.8959 17.4539 29.985 17.5515C30.074 17.649 30.1428 17.7632 30.1875 17.8875L32.5875 24.4625C32.676 24.7112 32.6626 24.9848 32.5502 25.2236C32.4378 25.4625 32.2355 25.6472 31.9875 25.7375L15.5375 31.725" stroke="#050041" stroke-width="1.5" stroke-linecap="round" stroke-linejoin="round"/>
<path d="M32.5 25.3125V31C32.5 31.2652 32.3946 31.5196 32.2071 31.7071C32.0196 31.8946 31.7652 32 31.5 32H14" stroke="#050041" stroke-width="1.5" stroke-linecap="round" stroke-linejoin="round"/>
<path d="M14 28.75C14.6904 28.75 15.25 28.1904 15.25 27.5C15.25 26.8096 14.6904 26.25 14 26.25C13.3096 26.25 12.75 26.8096 12.75 27.5C12.75 28.1904 13.3096 28.75 14 28.75Z" fill="#050041"/>
</svg>
